<svg width="68" height="68" viewBox="0 0 68 68" fill="none" xmlns="http://www.w3.org/2000/svg">
<rect width="68" height="68" rx="34" fill="#FDE8E8"/>
<path d="M40.05 48H27.95C24.66 48 22 45.34 22 42.05V30.03C22 26.7 24.7 24 28.03 24H39.98C43.3 24 46 26.7 46 30.03V42.06C46 45.34 43.34 48 40.05 48Z" fill="url(#paint0_radial_3186_7979)"/>
<path d="M22 30C22 28.4087 22.6321 26.8826 23.7574 25.7574C24.8826 24.6321 26.4087 24 28 24H30V48H28C26.4087 48 24.8826 47.3679 23.7574 46.2426C22.6321 45.1174 22 43.5913 22 42V30Z" fill="url(#paint1_linear_3186_7979)"/>
<path d="M22 42H46C46 43.5913 45.3679 45.1174 44.2426 46.2426C43.1174 47.3679 41.5913 48 40 48H28C26.4087 48 24.8826 47.3679 23.7574 46.2426C22.6321 45.1174 22 43.5913 22 42Z" fill="url(#paint2_linear_3186_7979)"/>
<path d="M38 24H40C41.5913 24 43.1174 24.6321 44.2426 25.7574C45.3679 26.8826 46 28.4087 46 30V42C46 43.5913 45.3679 45.1174 44.2426 46.2426C43.1174 47.3679 41.5913 48 40 48H38V24Z" fill="url(#paint3_radial_3186_7979)"/>
<path d="M21.5 21.9502V31.0502" stroke="url(#paint4_linear_3186_7979)" stroke-miterlimit="10"/>
<path d="M22 30V41C20.9 41 20 40.1 20 39.002V31.998C20 30.9 20.9 30 22 30Z" fill="url(#paint5_linear_3186_7979)"/>
<path d="M40.753 36.5H27.247C26.1209 36.4974 25.0418 36.0486 24.2458 35.2521C23.4498 34.4556 23.0018 33.3761 23 32.25C23.0018 31.1239 23.4498 30.0444 24.2458 29.2479C25.0418 28.4514 26.1209 28.0026 27.247 28H40.753C41.8791 28.0026 42.9582 28.4514 43.7542 29.2479C44.5502 30.0444 44.9982 31.1239 45 32.25C45 34.581 43.082 36.5 40.753 36.5Z" fill="url(#paint6_linear_3186_7979)"/>
<path d="M36.528 44H31.472C30.66 44 30 43.326 30 42.5C30 41.674 30.66 41 31.472 41H36.528C37.339 41 38 41.674 38 42.5C38 43.326 37.34 44 36.528 44Z" fill="url(#paint7_linear_3186_7979)"/>
<path d="M21.5 23C21.697 23 21.892 22.9612 22.074 22.8858C22.256 22.8104 22.4214 22.6999 22.5607 22.5607C22.6999 22.4214 22.8104 22.256 22.8858 22.074C22.9612 21.892 23 21.697 23 21.5C23 21.303 22.9612 21.108 22.8858 20.926C22.8104 20.744 22.6999 20.5786 22.5607 20.4393C22.4214 20.3001 22.256 20.1896 22.074 20.1142C21.892 20.0388 21.697 20 21.5 20C21.1022 20 20.7206 20.158 20.4393 20.4393C20.158 20.7206 20 21.1022 20 21.5C20 21.8978 20.158 22.2794 20.4393 22.5607C20.7206 22.842 21.1022 23 21.5 23Z" fill="url(#paint8_radial_3186_7979)"/>
<path d="M46.5 22V31.09" stroke="url(#paint9_linear_3186_7979)" stroke-miterlimit="10"/>
<path d="M46.5 23.1C46.911 23.1 47.3053 22.9367 47.596 22.646C47.8866 22.3553 48.0499 21.9611 48.0499 21.55C48.0499 21.1389 47.8866 20.7447 47.596 20.454C47.3053 20.1633 46.911 20 46.5 20C46.0889 20 45.6946 20.1633 45.4039 20.454C45.1133 20.7447 44.95 21.1389 44.95 21.55C44.95 21.9611 45.1133 22.3553 45.4039 22.646C45.6946 22.9367 46.0889 23.1 46.5 23.1Z" fill="url(#paint10_radial_3186_7979)"/>
<path d="M27.5 30H27C25.8954 30 25 30.8954 25 32V34C25 35.1046 25.8954 36 27 36H27.5C28.6046 36 29.5 35.1046 29.5 34V32C29.5 30.8954 28.6046 30 27.5 30Z" fill="url(#paint11_radial_3186_7979)"/>
<path d="M39 30H38.5C37.3954 30 36.5 30.8954 36.5 32V34C36.5 35.1046 37.3954 36 38.5 36H39C40.1046 36 41 35.1046 41 34V32C41 30.8954 40.1046 30 39 30Z" fill="url(#paint12_radial_3186_7979)"/>
<path d="M37.5 21H30.5C29.6716 21 29 21.6716 29 22.5C29 23.3284 29.6716 24 30.5 24H37.5C38.3284 24 39 23.3284 39 22.5C39 21.6716 38.3284 21 37.5 21Z" fill="url(#paint13_linear_3186_7979)"/>
<path d="M37.5 21H30.5C29.6716 21 29 21.6716 29 22.5C29 23.3284 29.6716 24 30.5 24H37.5C38.3284 24 39 23.3284 39 22.5C39 21.6716 38.3284 21 37.5 21Z" fill="url(#paint14_radial_3186_7979)"/>
<path d="M46 40.9397V29.9297C47.1 29.9297 48 30.8297 48 31.9297V38.9397C48 40.0397 47.1 40.9397 46 40.9397Z" fill="url(#paint15_linear_3186_7979)"/>
<path d="M29.5 31.25C29.5 30.5596 28.9404 30 28.25 30C27.5596 30 27 30.5596 27 31.25V33.75C27 34.4404 27.5596 35 28.25 35C28.9404 35 29.5 34.4404 29.5 33.75V31.25Z" fill="url(#paint16_linear_3186_7979)"/>
<path d="M29.5 31.25C29.5 30.5596 28.9404 30 28.25 30C27.5596 30 27 30.5596 27 31.25V33.75C27 34.4404 27.5596 35 28.25 35C28.9404 35 29.5 34.4404 29.5 33.75V31.25Z" fill="url(#paint17_radial_3186_7979)"/>
<path d="M41 31.25C41 30.5596 40.4404 30 39.75 30C39.0596 30 38.5 30.5596 38.5 31.25V33.75C38.5 34.4404 39.0596 35 39.75 35C40.4404 35 41 34.4404 41 33.75V31.25Z" fill="url(#paint18_linear_3186_7979)"/>
<path d="M41 31.25C41 30.5596 40.4404 30 39.75 30C39.0596 30 38.5 30.5596 38.5 31.25V33.75C38.5 34.4404 39.0596 35 39.75 35C40.4404 35 41 34.4404 41 33.75V31.25Z" fill="url(#paint19_radial_3186_7979)"/>
<g filter="url(#filter0_f_3186_7979)">
<path d="M21.625 23V29" stroke="url(#paint20_linear_3186_7979)" stroke-width="0.25"/>
</g>
<g filter="url(#filter1_f_3186_7979)">
<path d="M46.625 23V29" stroke="url(#paint21_linear_3186_7979)" stroke-width="0.25"/>
</g>
<path d="M47 33C47.5523 33 48 32.3284 48 31.5C48 30.6716 47.5523 30 47 30C46.4477 30 46 30.6716 46 31.5C46 32.3284 46.4477 33 47 33Z" fill="url(#paint22_radial_3186_7979)"/>
<path d="M47 39C47.5523 39 48 36.9853 48 34.5C48 32.0147 47.5523 30 47 30C46.4477 30 46 32.0147 46 34.5C46 36.9853 46.4477 39 47 39Z" fill="url(#paint23_radial_3186_7979)"/>
<path fill-rule="evenodd" clip-rule="evenodd" d="M37.776 21.0254C38.0736 21.081 38.3474 21.2254 38.5614 21.4396C38.7754 21.6538 38.9196 21.9277 38.975 22.2254C38.9347 22.3992 38.8487 22.5591 38.7258 22.6884C38.6029 22.8177 38.4476 22.9118 38.2761 22.9609C38.1045 23.01 37.923 23.0124 37.7503 22.9676C37.5775 22.9229 37.4199 22.8328 37.2937 22.7067C37.1676 22.5805 37.0775 22.4229 37.0328 22.2502C36.9881 22.0774 36.9904 21.8959 37.0395 21.7244C37.0886 21.5528 37.1827 21.3976 37.312 21.2747C37.4413 21.1517 37.6022 21.0657 37.776 21.0254Z" fill="url(#paint24_radial_3186_7979)"/>
<defs>
<filter id="filter0_f_3186_7979" x="21" y="22.5" width="1.25" height="7" filterUnits="userSpaceOnUse" color-interpolation-filters="sRGB">
<feFlood flood-opacity="0" result="BackgroundImageFix"/>
<feBlend mode="normal" in="SourceGraphic" in2="BackgroundImageFix" result="shape"/>
<feGaussianBlur stdDeviation="0.25" result="effect1_foregroundBlur_3186_7979"/>
</filter>
<filter id="filter1_f_3186_7979" x="46" y="22.5" width="1.25" height="7" filterUnits="userSpaceOnUse" color-interpolation-filters="sRGB">
<feFlood flood-opacity="0" result="BackgroundImageFix"/>
<feBlend mode="normal" in="SourceGraphic" in2="BackgroundImageFix" result="shape"/>
<feGaussianBlur stdDeviation="0.25" result="effect1_foregroundBlur_3186_7979"/>
</filter>
<radialGradient id="paint0_radial_3186_7979" cx="0" cy="0" r="1" gradientUnits="userSpaceOnUse" gradientTransform="translate(42.9998 29.5001) rotate(141.911) scale(23.5053)">
<stop stop-color="#EEEBF0"/>
<stop offset="0.493" stop-color="#D1BEE3"/>
<stop offset="1" stop-color="#D0BCE2"/>
</radialGradient>
<linearGradient id="paint1_linear_3186_7979" x1="30" y1="36" x2="22" y2="36" gradientUnits="userSpaceOnUse">
<stop stop-color="#D5B2C0" stop-opacity="0"/>
<stop offset="1" stop-color="#B4878D"/>
</linearGradient>
<linearGradient id="paint2_linear_3186_7979" x1="34" y1="45" x2="34" y2="49" gradientUnits="userSpaceOnUse">
<stop stop-color="#B17EDB" stop-opacity="0"/>
<stop offset="1" stop-color="#A56BD6"/>
</linearGradient>
<radialGradient id="paint3_radial_3186_7979" cx="0" cy="0" r="1" gradientUnits="userSpaceOnUse" gradientTransform="translate(43 31.5) rotate(-5.71059) scale(5.02494 19.2064)">
<stop stop-color="#F0EAF6"/>
<stop offset="1" stop-color="#E7E0EF" stop-opacity="0"/>
</radialGradient>
<linearGradient id="paint4_linear_3186_7979" x1="-nan" y1="-nan" x2="-nan" y2="-nan" gradientUnits="userSpaceOnUse">
<stop stop-color="#EA248A"/>
<stop offset="1" stop-color="#DF2232"/>
</linearGradient>
<linearGradient id="paint5_linear_3186_7979" x1="21" y1="30" x2="21" y2="41" gradientUnits="userSpaceOnUse">
<stop stop-color="#E93273"/>
<stop offset="1" stop-color="#D21844"/>
</linearGradient>
<linearGradient id="paint6_linear_3186_7979" x1="33.998" y1="35.701" x2="33.998" y2="29.391" gradientUnits="userSpaceOnUse">
<stop offset="0.006" stop-color="#443E75"/>
<stop offset="1" stop-color="#2F1A3B"/>
</linearGradient>
<linearGradient id="paint7_linear_3186_7979" x1="33.998" y1="43.686" x2="33.998" y2="40.889" gradientUnits="userSpaceOnUse">
<stop offset="0.006" stop-color="#39325E"/>
<stop offset="1" stop-color="#2B1831"/>
</linearGradient>
<radialGradient id="paint8_radial_3186_7979" cx="0" cy="0" r="1" gradientUnits="userSpaceOnUse" gradientTransform="translate(22 21) rotate(104.036) scale(2.06155)">
<stop stop-color="#FF6C82"/>
<stop offset="0.441" stop-color="#FF2455"/>
<stop offset="1" stop-color="#D9206C"/>
</radialGradient>
<linearGradient id="paint9_linear_3186_7979" x1="-nan" y1="-nan" x2="-nan" y2="-nan" gradientUnits="userSpaceOnUse">
<stop stop-color="#EA248A"/>
<stop offset="1" stop-color="#DF2232"/>
</linearGradient>
<radialGradient id="paint10_radial_3186_7979" cx="0" cy="0" r="1" gradientUnits="userSpaceOnUse" gradientTransform="translate(47.016 21.0329) rotate(104.036) scale(2.13027)">
<stop stop-color="#FF6C82"/>
<stop offset="0.441" stop-color="#FF2455"/>
<stop offset="1" stop-color="#D9206C"/>
</radialGradient>
<radialGradient id="paint11_radial_3186_7979" cx="0" cy="0" r="1" gradientUnits="userSpaceOnUse" gradientTransform="translate(27.5 33) rotate(168.69) scale(2.54951 3.48912)">
<stop stop-color="#322649"/>
<stop offset="1" stop-color="#342950" stop-opacity="0"/>
</radialGradient>
<radialGradient id="paint12_radial_3186_7979" cx="0" cy="0" r="1" gradientUnits="userSpaceOnUse" gradientTransform="translate(39 33) rotate(168.69) scale(2.54951 3.48912)">
<stop stop-color="#322649"/>
<stop offset="1" stop-color="#342950" stop-opacity="0"/>
</radialGradient>
<linearGradient id="paint13_linear_3186_7979" x1="34" y1="21" x2="32.5" y2="24.5" gradientUnits="userSpaceOnUse">
<stop stop-color="#FFCE2B"/>
<stop offset="1" stop-color="#D9862D"/>
</linearGradient>
<radialGradient id="paint14_radial_3186_7979" cx="0" cy="0" r="1" gradientUnits="userSpaceOnUse" gradientTransform="translate(34 22) rotate(90) scale(3 10)">
<stop offset="0.431" stop-color="#CA7E29" stop-opacity="0"/>
<stop offset="1" stop-color="#673F13"/>
</radialGradient>
<linearGradient id="paint15_linear_3186_7979" x1="47" y1="29.9297" x2="47" y2="40.9397" gradientUnits="userSpaceOnUse">
<stop stop-color="#FF30AA"/>
<stop offset="1" stop-color="#FF2353"/>
</linearGradient>
<linearGradient id="paint16_linear_3186_7979" x1="29.5" y1="32" x2="27" y2="32" gradientUnits="userSpaceOnUse">
<stop stop-color="#29B6FE"/>
<stop offset="1" stop-color="#1769A8"/>
</linearGradient>
<radialGradient id="paint17_radial_3186_7979" cx="0" cy="0" r="1" gradientUnits="userSpaceOnUse" gradientTransform="translate(29 31.5) rotate(90) scale(2.5 1.14393)">
<stop stop-color="#54C8FF"/>
<stop offset="1" stop-color="#54C8FF" stop-opacity="0"/>
</radialGradient>
<linearGradient id="paint18_linear_3186_7979" x1="41" y1="32" x2="38.5" y2="32" gradientUnits="userSpaceOnUse">
<stop stop-color="#29B6FE"/>
<stop offset="1" stop-color="#1769A8"/>
</linearGradient>
<radialGradient id="paint19_radial_3186_7979" cx="0" cy="0" r="1" gradientUnits="userSpaceOnUse" gradientTransform="translate(40.5 31.5) rotate(90) scale(2.5 1.14393)">
<stop stop-color="#54C8FF"/>
<stop offset="1" stop-color="#54C8FF" stop-opacity="0"/>
</radialGradient>
<linearGradient id="paint20_linear_3186_7979" x1="-nan" y1="-nan" x2="-nan" y2="-nan" gradientUnits="userSpaceOnUse">
<stop stop-color="#FF96CB"/>
<stop offset="1" stop-color="#FF6DB7" stop-opacity="0"/>
</linearGradient>
<linearGradient id="paint21_linear_3186_7979" x1="-nan" y1="-nan" x2="-nan" y2="-nan" gradientUnits="userSpaceOnUse">
<stop stop-color="#FF96CB"/>
<stop offset="1" stop-color="#FF6DB7" stop-opacity="0"/>
</linearGradient>
<radialGradient id="paint22_radial_3186_7979" cx="0" cy="0" r="1" gradientUnits="userSpaceOnUse" gradientTransform="translate(47 31.5) rotate(90) scale(1.5 1)">
<stop stop-color="#FF72C1"/>
<stop offset="1" stop-color="#FF6EBF" stop-opacity="0"/>
</radialGradient>
<radialGradient id="paint23_radial_3186_7979" cx="0" cy="0" r="1" gradientUnits="userSpaceOnUse" gradientTransform="translate(47 34.5) rotate(90) scale(4.5 0.55944)">
<stop stop-color="#FF4B9C"/>
<stop offset="1" stop-color="#FF73C1" stop-opacity="0"/>
</radialGradient>
<radialGradient id="paint24_radial_3186_7979" cx="0" cy="0" r="1" gradientUnits="userSpaceOnUse" gradientTransform="translate(38 22.0004) rotate(90)">
<stop stop-color="#FFEA60"/>
<stop offset="1" stop-color="#FFEF66" stop-opacity="0"/>
</radialGradient>
</defs>
</svg>
