<svg width="7" height="12" viewBox="0 0 7 12" fill="none" xmlns="http://www.w3.org/2000/svg">
<path d="M1.06641 11.6797C1.3584 11.6797 1.59326 11.5781 1.79639 11.375L6.57617 6.71582C6.84912 6.44287 6.96973 6.17627 6.97607 5.83984C6.97607 5.50977 6.84912 5.23047 6.57617 4.96387L1.80273 0.29834C1.59326 0.101562 1.35205 0 1.06641 0C0.482422 0 0 0.469727 0 1.05371C0 1.3457 0.126953 1.6123 0.342773 1.83447L4.48779 5.84619L0.342773 9.84521C0.120605 10.0674 0 10.334 0 10.626C0 11.2036 0.482422 11.6797 1.06641 11.6797Z" fill="#ABABAB"/>
</svg>
