<svg width="100" height="100" viewBox="0 0 100 100" fill="none" xmlns="http://www.w3.org/2000/svg">
<path d="M80.1666 23.2503H78.4999L64.4166 9.16699C63.2916 8.04199 61.4583 8.04199 60.2916 9.16699C59.1666 10.292 59.1666 12.1253 60.2916 13.292L70.2499 23.2503H29.7499L39.7082 13.292C40.8332 12.167 40.8332 10.3337 39.7082 9.16699C38.5832 8.04199 36.7499 8.04199 35.5833 9.16699L21.5416 23.2503H19.8749C16.1249 23.2503 8.33325 23.2503 8.33325 33.917C8.33325 37.9587 9.16658 40.6253 10.9166 42.3753C11.9166 43.417 13.1249 43.9587 14.4166 44.2503C15.6249 44.542 16.9166 44.5837 18.1666 44.5837H81.8332C83.1249 44.5837 84.3333 44.5003 85.4999 44.2503C88.9999 43.417 91.6666 40.917 91.6666 33.917C91.6666 23.2503 83.8749 23.2503 80.1666 23.2503Z" fill="#717658"/>
<path d="M79.375 50H20.2917C17.7083 50 15.75 52.2917 16.1667 54.8333L19.6667 76.25C20.8333 83.4167 23.9583 91.6667 37.8333 91.6667H61.2083C75.25 91.6667 77.75 84.625 79.25 76.75L83.4583 54.9583C83.9583 52.375 82 50 79.375 50ZM44.2083 76.875C44.2083 78.5 42.9167 79.7917 41.3333 79.7917C39.7083 79.7917 38.4167 78.5 38.4167 76.875V63.125C38.4167 61.5417 39.7083 60.2083 41.3333 60.2083C42.9167 60.2083 44.2083 61.5417 44.2083 63.125V76.875ZM62.0417 76.875C62.0417 78.5 60.75 79.7917 59.125 79.7917C57.5417 79.7917 56.2083 78.5 56.2083 76.875V63.125C56.2083 61.5417 57.5417 60.2083 59.125 60.2083C60.75 60.2083 62.0417 61.5417 62.0417 63.125V76.875Z" fill="#717658"/>
</svg>
