<svg width="68" height="68" viewBox="0 0 68 68" fill="none" xmlns="http://www.w3.org/2000/svg">
<rect width="68" height="68" rx="34" fill="#DEF7E5"/>
<g clip-path="url(#clip0_3186_8027)">
<path d="M25.1112 34.8889V27.7778H22.4445C21.7373 27.7778 21.059 28.0588 20.5589 28.5589C20.0588 29.059 19.7778 29.7373 19.7778 30.4445V46.4445C19.7792 46.6096 19.8264 46.771 19.9143 46.9108C20.0023 47.0505 20.1274 47.163 20.2756 47.2356C20.4184 47.3006 20.5759 47.3266 20.732 47.3109C20.8882 47.2953 21.0374 47.2387 21.1645 47.1467L25.7423 43.7778H37.6889C38.0258 43.7878 38.3612 43.7285 38.6742 43.6036C38.9873 43.4787 39.2713 43.2908 39.5088 43.0516C39.7463 42.8125 39.9322 42.5271 40.0549 42.2132C40.1776 41.8993 40.2346 41.5635 40.2223 41.2267V40.2223H30.4445C29.03 40.2223 27.6735 39.6604 26.6733 38.6602C25.6731 37.66 25.1112 36.3034 25.1112 34.8889Z" fill="black"/>
<path d="M45.5556 21.5557H30.4445C29.7373 21.5557 29.059 21.8366 28.5589 22.3367C28.0588 22.8368 27.7778 23.5151 27.7778 24.2223V34.889C27.7778 35.5962 28.0588 36.2745 28.5589 36.7746C29.059 37.2747 29.7373 37.5557 30.4445 37.5557H42.4889L46.7378 40.8534C46.8641 40.9468 47.0129 41.0051 47.1691 41.0222C47.3252 41.0394 47.4831 41.0149 47.6267 40.9512C47.778 40.8792 47.9058 40.7658 47.9955 40.6243C48.0851 40.4828 48.1329 40.3188 48.1334 40.1512V24.2223C48.1338 23.5302 47.8651 22.8651 47.384 22.3675C46.903 21.8698 46.2473 21.5787 45.5556 21.5557Z" fill="black"/>
</g>
<defs>
<clipPath id="clip0_3186_8027">
<rect width="32" height="32" fill="white" transform="translate(18 18)"/>
</clipPath>
</defs>
</svg>
