<svg width="200" height="200" viewBox="0 0 200 200" fill="none" xmlns="http://www.w3.org/2000/svg">
<path d="M179.416 90.583L166.75 77.9163C164.583 75.7497 162.833 71.4997 162.833 68.4997V50.4997C162.833 43.1663 156.833 37.1663 149.5 37.1663H131.583C128.583 37.1663 124.333 35.4163 122.166 33.2497L109.5 20.583C104.333 15.4163 95.833 15.4163 90.6663 20.583L77.833 33.2497C75.7497 35.4163 71.4997 37.1663 68.4163 37.1663H50.4997C43.1663 37.1663 37.1663 43.1663 37.1663 50.4997V68.4163C37.1663 71.4163 35.4163 75.6663 33.2497 77.833L20.583 90.4997C15.4163 95.6663 15.4163 104.166 20.583 109.333L33.2497 122C35.4163 124.166 37.1663 128.416 37.1663 131.416V149.333C37.1663 156.666 43.1663 162.666 50.4997 162.666H68.4163C71.4163 162.666 75.6663 164.416 77.833 166.583L90.4997 179.25C95.6663 184.416 104.166 184.416 109.333 179.25L122 166.583C124.166 164.416 128.416 162.666 131.416 162.666H149.333C156.666 162.666 162.666 156.666 162.666 149.333V131.416C162.666 128.416 164.416 124.166 166.583 122L179.25 109.333C184.666 104.25 184.666 95.7497 179.416 90.583ZM66.6663 74.9997C66.6663 70.4163 70.4163 66.6663 74.9997 66.6663C79.583 66.6663 83.333 70.4163 83.333 74.9997C83.333 79.583 79.6663 83.333 74.9997 83.333C70.4163 83.333 66.6663 79.583 66.6663 74.9997ZM79.4163 129.416C78.1663 130.666 76.583 131.25 74.9997 131.25C73.4163 131.25 71.833 130.666 70.583 129.416C68.1663 127 68.1663 123 70.583 120.583L120.583 70.583C123 68.1663 127 68.1663 129.416 70.583C131.833 72.9997 131.833 76.9997 129.416 79.4163L79.4163 129.416ZM125 133.333C120.333 133.333 116.583 129.583 116.583 125C116.583 120.416 120.333 116.666 124.916 116.666C129.5 116.666 133.25 120.416 133.25 125C133.25 129.583 129.583 133.333 125 133.333Z" fill="#717658"/>
</svg>
