<svg width="23" height="19" viewBox="0 0 23 19" fill="none" xmlns="http://www.w3.org/2000/svg">
<path fill-rule="evenodd" clip-rule="evenodd" d="M5.11814 2.03149C3.45914 2.78949 2.24414 4.59349 2.24414 6.74449C2.24414 8.94149 3.14414 10.6355 4.43214 12.0875C5.49514 13.2835 6.78114 14.2755 8.03514 15.2415C8.33381 15.4715 8.62881 15.7008 8.92014 15.9295C9.44614 16.3445 9.91514 16.7075 10.3681 16.9725C10.8211 17.2375 11.1841 17.3575 11.4941 17.3575C11.8041 17.3575 12.1681 17.2375 12.6201 16.9725C13.0731 16.7075 13.5421 16.3445 14.0681 15.9295C14.3595 15.7002 14.6545 15.4712 14.9531 15.2425C16.2071 14.2745 17.4931 13.2835 18.5561 12.0875C19.8451 10.6355 20.7441 8.94149 20.7441 6.74449C20.7441 4.59449 19.5291 2.78949 17.8701 2.03149C16.2581 1.29449 14.0921 1.48949 12.0341 3.62849C11.9642 3.70108 11.8803 3.75881 11.7875 3.79825C11.6947 3.83769 11.595 3.85801 11.4941 3.85801C11.3933 3.85801 11.2935 3.83769 11.2008 3.79825C11.108 3.75881 11.0241 3.70108 10.9541 3.62849C8.89614 1.48949 6.73014 1.29449 5.11814 2.03149ZM11.4941 2.06749C9.18214 -0.00250912 6.59314 -0.292509 4.49414 0.666491C2.28014 1.68149 0.744141 4.03349 0.744141 6.74549C0.744141 9.41049 1.85414 11.4445 3.31114 13.0845C4.47714 14.3975 5.90414 15.4965 7.16514 16.4665C7.45181 16.6865 7.72714 16.9005 7.99114 17.1085C8.50414 17.5125 9.05414 17.9425 9.61114 18.2685C10.1681 18.5945 10.8041 18.8585 11.4941 18.8585C12.1841 18.8585 12.8201 18.5935 13.3771 18.2685C13.9351 17.9425 14.4841 17.5125 14.9971 17.1085C15.2611 16.9005 15.5365 16.6865 15.8231 16.4665C17.0831 15.4965 18.5111 14.3965 19.6771 13.0845C21.1341 11.4445 22.2441 9.41049 22.2441 6.74549C22.2441 4.03349 20.7091 1.68149 18.4941 0.668491C16.3951 -0.291509 13.8061 -0.00150919 11.4941 2.06749Z" fill="black"/>
</svg>
