<svg width="16" height="16" viewBox="0 0 16 16" fill="none" xmlns="http://www.w3.org/2000/svg">
<path d="M7.99984 1.3335C6.58535 1.3335 5.2288 1.8954 4.2286 2.89559C3.22841 3.89579 2.6665 5.25234 2.6665 6.66683C2.6665 10.2668 7.3665 14.3335 7.5665 14.5068C7.68726 14.6101 7.84094 14.6669 7.99984 14.6669C8.15874 14.6669 8.31242 14.6101 8.43317 14.5068C8.6665 14.3335 13.3332 10.2668 13.3332 6.66683C13.3332 5.25234 12.7713 3.89579 11.7711 2.89559C10.7709 1.8954 9.41432 1.3335 7.99984 1.3335ZM7.99984 13.1002C6.57984 11.7668 3.99984 8.8935 3.99984 6.66683C3.99984 5.60596 4.42126 4.58855 5.17141 3.8384C5.92156 3.08826 6.93897 2.66683 7.99984 2.66683C9.0607 2.66683 10.0781 3.08826 10.8283 3.8384C11.5784 4.58855 11.9998 5.60596 11.9998 6.66683C11.9998 8.8935 9.41984 11.7735 7.99984 13.1002ZM7.99984 4.00016C7.47242 4.00016 6.95685 4.15656 6.51832 4.44958C6.07979 4.74259 5.73799 5.15907 5.53616 5.64634C5.33432 6.13361 5.28152 6.66979 5.38441 7.18707C5.4873 7.70435 5.74128 8.17951 6.11422 8.55245C6.48716 8.92539 6.96231 9.17936 7.4796 9.28226C7.99688 9.38515 8.53306 9.33234 9.02033 9.13051C9.5076 8.92868 9.92407 8.58688 10.2171 8.14835C10.5101 7.70982 10.6665 7.19425 10.6665 6.66683C10.6665 5.95959 10.3856 5.28131 9.88546 4.78121C9.38536 4.28111 8.70708 4.00016 7.99984 4.00016ZM7.99984 8.00016C7.73613 8.00016 7.47834 7.92196 7.25908 7.77546C7.03981 7.62895 6.86891 7.42071 6.768 7.17707C6.66708 6.93344 6.64068 6.66535 6.69212 6.40671C6.74357 6.14807 6.87056 5.91049 7.05703 5.72402C7.2435 5.53755 7.48108 5.41056 7.73972 5.35912C7.99836 5.30767 8.26645 5.33407 8.51008 5.43499C8.75372 5.53591 8.96195 5.7068 9.10846 5.92607C9.25497 6.14533 9.33317 6.40312 9.33317 6.66683C9.33317 7.02045 9.19269 7.35959 8.94265 7.60964C8.6926 7.85969 8.35346 8.00016 7.99984 8.00016Z" fill="#7A7A7A"/>
</svg>
