<svg width="28" height="28" viewBox="0 0 28 28" fill="none" xmlns="http://www.w3.org/2000/svg">
<path d="M7.71484 16.498C9.49902 16.498 10.8174 15.1621 10.8174 13.2109V7.28711C10.8174 5.33594 9.49902 4 7.71484 4C5.93066 4 4.6123 5.33594 4.6123 7.28711V13.2109C4.6123 15.1621 5.93066 16.498 7.71484 16.498ZM1 13.4131C1 17.0518 3.41699 19.5391 6.89746 19.873V21.6572H3.67188C3.20605 21.6572 2.81934 22.0264 2.81934 22.4922C2.81934 22.9492 3.20605 23.3271 3.67188 23.3271H11.7578C12.2236 23.3271 12.6104 22.9492 12.6104 22.4922C12.6104 22.0264 12.2236 21.6572 11.7578 21.6572H8.53223V19.873C12.0127 19.5391 14.4297 17.0518 14.4297 13.4131V11.6816C14.4297 11.2158 14.0605 10.8555 13.5947 10.8555C13.1289 10.8555 12.7422 11.2158 12.7422 11.6816V13.3516C12.7422 16.3486 10.7119 18.3174 7.71484 18.3174C4.71777 18.3174 2.6875 16.3486 2.6875 13.3516V11.6816C2.6875 11.2158 2.30957 10.8555 1.84375 10.8555C1.37793 10.8555 1 11.2158 1 11.6816V13.4131Z" fill="#1C1C1E"/>
</svg>
