<svg width="24" height="24" viewBox="0 0 24 24" fill="none" xmlns="http://www.w3.org/2000/svg">
<path d="M10.5201 8.99987C10.9635 8.78278 11.3109 8.4094 11.4955 7.95156C11.6801 7.49372 11.6889 6.98378 11.5201 6.51987C11.3613 6.09229 11.231 5.65467 11.1301 5.20987M10.5201 8.99987L21.9101 18.8999C21.9121 19.3243 21.824 19.7443 21.6516 20.1322C21.4792 20.52 21.2265 20.8669 20.9101 21.1499C20.3595 21.6404 19.6475 21.9109 18.9101 21.9099H18.5301C14.3388 21.3924 10.4394 19.4933 7.44775 16.5125C4.45613 13.5317 2.54284 9.63925 2.0101 5.44987C1.95118 5.02293 1.98494 4.5883 2.10909 4.17558C2.23324 3.76286 2.44485 3.38174 2.72953 3.05815C3.01421 2.73456 3.36527 2.47612 3.75881 2.3004C4.15235 2.12468 4.57913 2.03582 5.0101 2.03987L8.0101 2.03987C8.7248 2.02948 9.41972 2.2746 9.96972 2.73111C10.5197 3.18761 10.8887 3.82549 11.0101 4.52987C11.0401 4.75987 11.0801 4.98987 11.1301 5.20987M10.5201 8.99987L10.1001 9.27987C10.6419 10.2539 11.3149 11.1489 12.1001 11.9399C12.7129 12.5482 13.388 13.0891 14.114 13.5538L10.5201 8.99987ZM11.1301 5.20987L10.3988 5.37608M11.1301 5.20987L10.3987 5.37584C10.3987 5.37592 10.3987 5.376 10.3988 5.37608M21.1601 15.907C21.1495 15.3882 20.96 14.889 20.6235 14.4938C20.2969 14.1104 19.8513 13.848 19.3587 13.7478C19.105 13.7356 18.8438 13.6705 18.688 13.6317C18.6559 13.6237 18.6282 13.6168 18.606 13.6117C18.1278 13.5062 17.6579 13.3663 17.1998 13.1933C16.9109 13.0892 16.5938 13.0952 16.3089 13.2101C16.0228 13.3254 15.7895 13.5425 15.6538 13.8195C15.6538 13.8195 15.6537 13.8196 15.6537 13.8197L15.4339 14.2693L15.0866 14.9797L14.3955 14.5953C13.3615 14.0201 12.4114 13.3057 11.5717 12.4721L11.5678 12.4683C10.7343 11.6286 10.0199 10.6784 9.44469 9.64447L9.10827 9.0397L9.68408 8.65583L10.1041 8.37583L10.1455 8.34819L10.1903 8.32628C10.4674 8.1906 10.6845 7.95723 10.7999 7.67108C10.915 7.38561 10.9207 7.06773 10.816 6.77833C10.6462 6.32062 10.5068 5.85219 10.3988 5.37608M21.1601 15.907L10.3988 5.37608M21.1601 15.907L21.1601 18.8999L21.1601 18.9033C21.1616 19.2217 21.0955 19.5367 20.9662 19.8276C20.8371 20.1182 20.6478 20.3781 20.4109 20.5902C19.998 20.9579 19.4641 21.1607 18.9112 21.1599H18.9101H18.5767C14.5681 20.6548 10.8399 18.8336 7.97712 15.9812C5.10358 13.1181 3.26582 9.37927 2.75411 5.35526L2.75415 5.35525L2.75306 5.34733C2.70887 5.02713 2.73419 4.70116 2.8273 4.39162C2.92041 4.08208 3.07912 3.79624 3.29263 3.55355C3.50614 3.31086 3.76944 3.11702 4.06459 2.98523C4.35975 2.85345 4.67983 2.7868 5.00306 2.78984L5.00306 2.78987H5.0101L8.0101 2.78987V2.78995L8.02101 2.78979C8.55703 2.782 9.07822 2.96584 9.49072 3.30822C9.89965 3.64763 10.1751 4.12072 10.2686 4.64356L21.1601 15.907ZM20.6901 19.0008L20.6901 18.9951L20.6701 15.8843C20.6763 15.4816 20.5434 15.089 20.2935 14.7728C20.0412 14.4534 19.6854 14.2319 19.2874 14.1466L19.2632 14.1414L19.2387 14.1378C18.9843 14.1005 18.7332 14.054 18.4856 13.9983C17.9797 13.8835 17.4811 13.7384 16.9927 13.5637L16.3365 13.329L16.0543 13.9662L15.438 15.3578C15.4242 15.3862 15.4051 15.4117 15.3818 15.433C15.3573 15.4553 15.3287 15.4725 15.2975 15.4837L15.2812 15.4895L15.2651 15.4961C15.2079 15.5196 15.1442 15.521 15.0863 15.5004C12.1732 14.1344 9.83164 11.7893 8.47015 8.87358C8.45642 8.84385 8.44866 8.8117 8.44732 8.77897C8.44598 8.74608 8.45115 8.71324 8.46253 8.68234C8.47391 8.65145 8.49129 8.6231 8.51365 8.59894C8.53602 8.57478 8.56294 8.55527 8.59286 8.54154L8.59287 8.54155L8.59593 8.54012L9.99594 7.89012L10.628 7.59667L10.3817 6.94478C10.2038 6.47401 10.0604 5.99091 9.95272 5.49932L9.95273 5.49932L9.95181 5.49523C9.89602 5.2473 9.84947 4.996 9.8122 4.74127L9.80861 4.71677L9.80342 4.69255C9.71804 4.29455 9.49658 3.93876 9.17717 3.68643L8.71225 4.27494L9.17717 3.68643C8.86024 3.43606 8.46656 3.30308 8.06292 3.30987L5.0701 3.30987L5.06915 3.30987C4.82068 3.31018 4.57512 3.36341 4.34881 3.466C4.12251 3.56859 3.92064 3.7182 3.75665 3.90487L3.75152 3.91071L3.74651 3.91666C3.58626 4.10688 3.46624 4.32762 3.3937 4.56554C3.32117 4.80346 3.29762 5.05361 3.32449 5.30088L3.32441 5.30089L3.32575 5.31172C3.80856 9.22438 5.5802 12.865 8.36123 15.6592C11.1423 18.4535 14.7744 20.2424 18.6847 20.7438L18.6901 20.7444C18.9403 20.7747 19.1941 20.7524 19.4352 20.6789C19.6763 20.6054 19.8994 20.4823 20.0902 20.3176L20.0903 20.3176L20.0951 20.3133C20.2818 20.1493 20.4314 19.9475 20.534 19.7212C20.6366 19.4949 20.6898 19.2493 20.6901 19.0008ZM21.1675 2.96751L21.1674 2.96753L21.1702 2.97394C21.1826 3.00306 21.1893 3.03426 21.1901 3.06589V7.05987C21.1901 7.12617 21.1638 7.18976 21.1169 7.23664C21.07 7.28353 21.0064 7.30987 20.9401 7.30987C20.8738 7.30987 20.8102 7.28353 20.7633 7.23664C20.7164 7.18976 20.6901 7.12617 20.6901 7.05987V5.47987V3.67309L19.4106 4.94873L16.1114 8.23796C16.1113 8.23801 16.1113 8.23806 16.1112 8.2381C16.0644 8.28458 16.0011 8.31066 15.9351 8.31066C15.8698 8.31066 15.8071 8.28512 15.7605 8.23954C15.7149 8.19286 15.6893 8.13018 15.6893 8.06487C15.6893 7.99893 15.7154 7.93567 15.7618 7.88885C15.7619 7.88878 15.7619 7.8887 15.762 7.88862L19.0512 4.58939L20.3269 3.30987H18.5201H16.9401C16.8738 3.30987 16.8102 3.28353 16.7633 3.23664C16.7164 3.18976 16.6901 3.12617 16.6901 3.05987C16.6901 2.99356 16.7164 2.92998 16.7633 2.88309C16.8102 2.83621 16.8738 2.80987 16.9401 2.80987H20.9341C20.9657 2.81063 20.9969 2.8174 21.026 2.82981L21.026 2.82984L21.0325 2.83252C21.0935 2.85788 21.1421 2.90643 21.1675 2.96751Z" stroke="#AFAFAF" stroke-width="1.5"/>
</svg>
