<svg width="24" height="24" viewBox="0 0 24 24" fill="none" xmlns="http://www.w3.org/2000/svg">
<rect width="24" height="24" fill="white"/>
<path d="M13.2822 3.73281L13.2827 3.73374L15.0418 7.25196C15.2068 7.58777 15.489 7.88496 15.7905 8.10747C16.093 8.33062 16.4601 8.51207 16.8277 8.57333L16.828 8.57338L20.0177 9.10333C20.0178 9.10335 20.0179 9.10336 20.018 9.10338C20.9515 9.25903 21.3563 9.64464 21.4651 9.98314C21.5736 10.3205 21.47 10.8675 20.7976 11.5354L20.7964 11.5366L18.3164 14.0166C18.0314 14.3015 17.8335 14.6914 17.723 15.0775C17.6124 15.4639 17.5744 15.8985 17.662 16.2895L17.662 16.2895L17.6628 16.2928L18.3727 19.3624C18.643 20.5352 18.4038 21.0924 18.1416 21.2836C17.8785 21.4754 17.2722 21.5328 16.2342 20.9196L13.2448 19.15C13.2448 19.15 13.2448 19.15 13.2447 19.1499C13.2447 19.1499 13.2446 19.1499 13.2446 19.1499C12.8787 18.9331 12.4273 18.8401 12.0037 18.8401C11.5795 18.8401 11.1274 18.9333 10.7585 19.148L10.7552 19.1499L7.76521 20.9199L7.76473 20.9202C6.73415 21.5318 6.12724 21.4734 5.86213 21.28C5.59741 21.0868 5.35742 20.528 5.62704 19.3629L5.62705 19.3628L6.33705 16.2928L6.33706 16.2928L6.3378 16.2895C6.42545 15.8985 6.38745 15.4639 6.27685 15.0775C6.16632 14.6914 5.96839 14.3015 5.68346 14.0166L3.20346 11.5366C2.53547 10.8686 2.43059 10.3208 2.53871 9.98223C2.64667 9.64415 3.04877 9.25895 3.98186 9.10338C3.98194 9.10336 3.98203 9.10335 3.98211 9.10333L7.17186 8.57338L7.17362 8.57308C7.53669 8.51143 7.90118 8.32942 8.20146 8.10678C8.50108 7.88462 8.78302 7.5877 8.94794 7.2521L10.7067 3.73468C10.7067 3.73459 10.7067 3.7345 10.7068 3.73441C11.1506 2.85151 11.6473 2.57764 11.9987 2.57764C12.3491 2.57764 12.8434 2.85046 13.2822 3.73281Z" fill="url(#paint0_linear_4653_5966)" stroke="#E4A951" stroke-linecap="round" stroke-linejoin="round"/>
<defs>
<linearGradient id="paint0_linear_4653_5966" x1="2.00098" y1="11.981" x2="22.0032" y2="12.0125" gradientUnits="userSpaceOnUse">
<stop stop-color="#E4A951"/>
<stop offset="0.64" stop-color="#E4A951" stop-opacity="0"/>
</linearGradient>
</defs>
</svg>
