<svg width="16" height="16" viewBox="0 0 16 16" fill="none" xmlns="http://www.w3.org/2000/svg">
<path d="M7.99398 12.3332C10.3872 12.3332 12.3273 10.3931 12.3273 7.99984C12.3273 5.6066 10.3872 3.6665 7.99398 3.6665C5.60074 3.6665 3.66064 5.6066 3.66064 7.99984C3.66064 10.3931 5.60074 12.3332 7.99398 12.3332Z" stroke="#7A7A7A" stroke-width="1.5" stroke-linecap="round" stroke-linejoin="round"/>
<path d="M12.7543 12.7602L12.6676 12.6735M12.6676 3.32683L12.7543 3.24016L12.6676 3.32683ZM3.2343 12.7602L3.32097 12.6735L3.2343 12.7602ZM7.9943 1.38683V1.3335V1.38683ZM7.9943 14.6668V14.6135V14.6668ZM1.38097 8.00016H1.32764H1.38097ZM14.661 8.00016H14.6076H14.661ZM3.32097 3.32683L3.2343 3.24016L3.32097 3.32683Z" stroke="#7A7A7A" stroke-width="2" stroke-linecap="round" stroke-linejoin="round"/>
</svg>
