<svg width="25" height="24" viewBox="0 0 25 24" fill="none" xmlns="http://www.w3.org/2000/svg">
<path d="M20.33 8.6998L15.8 4.1698C14.85 3.2198 13.54 2.7098 12.2 2.7798L7.19998 3.0198C5.19998 3.1098 3.60998 4.6998 3.50998 6.6898L3.26998 11.6898C3.20998 13.0298 3.70998 14.3398 4.65998 15.2898L9.18997 19.8198C11.05 21.6798 14.07 21.6798 15.94 19.8198L20.33 15.4298C22.2 13.5798 22.2 10.5598 20.33 8.6998ZM9.99998 12.3798C8.40998 12.3798 7.11998 11.0898 7.11998 9.4998C7.11998 7.9098 8.40998 6.6198 9.99998 6.6198C11.59 6.6198 12.88 7.9098 12.88 9.4998C12.88 11.0898 11.59 12.3798 9.99998 12.3798Z" fill="#292D32"/>
</svg>
