<svg width="21" height="17" viewBox="0 0 21 17" fill="none" xmlns="http://www.w3.org/2000/svg">
<path fill-rule="evenodd" clip-rule="evenodd" d="M1.18545 1.18482C2.15096 0.22456 3.66217 0 5.61042 0H15.3779C17.3261 0 18.8373 0.22456 19.8028 1.18482C20.7684 2.14508 20.9941 3.64806 20.9941 5.58571V6.55714C20.9941 6.95952 20.6662 7.28571 20.2616 7.28571C19.3183 7.28571 18.5523 8.04752 18.5523 8.98571C18.5523 9.92391 19.3183 10.6857 20.2616 10.6857C20.6662 10.6857 20.9941 11.0119 20.9941 11.4143C20.9941 13.3519 20.7684 14.8549 19.8028 15.8152C18.8373 16.7754 17.3261 17 15.3779 17H5.61042C3.66217 17 2.15096 16.7754 1.18545 15.8152C0.219929 14.8549 -0.00585938 13.3519 -0.00585938 11.4143V10.9286C-0.00585938 10.5262 0.322118 10.2 0.726699 10.2C1.67003 10.2 2.436 9.43819 2.436 8.5C2.436 7.56181 1.67003 6.8 0.726699 6.8C0.322118 6.8 -0.00585938 6.47381 -0.00585938 6.07143V5.58571C-0.00585938 3.64806 0.219929 2.14508 1.18545 1.18482ZM1.45985 5.42757C2.85917 5.7569 3.90112 7.008 3.90112 8.5C3.90112 9.992 2.85917 11.2431 1.45985 11.5724C1.47385 13.4129 1.73556 14.3016 2.22144 14.7848C2.72104 15.2817 3.6517 15.5429 5.61042 15.5429H15.3779C17.3366 15.5429 18.2672 15.2817 18.7668 14.7848C19.2081 14.346 19.4645 13.5726 19.5183 12.0558C18.1241 11.7228 17.0872 10.4741 17.0872 8.98571C17.0872 7.4935 18.1294 6.24226 19.529 5.91314V5.58571C19.529 3.63765 19.2664 2.71206 18.7668 2.21518C18.2672 1.7183 17.3366 1.45714 15.3779 1.45714H5.61042C3.6517 1.45714 2.72104 1.7183 2.22144 2.21518C1.73556 2.69842 1.47385 3.58715 1.45985 5.42757Z" fill="#2E2E2E"/>
<path fill-rule="evenodd" clip-rule="evenodd" d="M8.54066 -3.27835e-08C8.94524 -5.08894e-08 9.27322 0.326192 9.27322 0.728571L9.27322 2.67143C9.27322 3.07381 8.94524 3.4 8.54066 3.4C8.13608 3.4 7.80811 3.07381 7.80811 2.67143L7.80811 0.728571C7.80811 0.326193 8.13608 -1.46777e-08 8.54066 -3.27835e-08ZM8.54066 5.82857C8.94524 5.82857 9.27322 6.15476 9.27322 6.55714L9.27322 10.4429C9.27322 10.8452 8.94524 11.1714 8.54066 11.1714C8.13608 11.1714 7.80811 10.8452 7.80811 10.4429L7.80811 6.55714C7.80811 6.15476 8.13608 5.82857 8.54066 5.82857ZM8.54066 13.6C8.94524 13.6 9.27322 13.9262 9.27322 14.3286L9.27322 16.2714C9.27322 16.6738 8.94525 17 8.54066 17C8.13608 17 7.80811 16.6738 7.80811 16.2714L7.80811 14.3286C7.80811 13.9262 8.13608 13.6 8.54066 13.6Z" fill="#2E2E2E"/>
</svg>